<svg width="86" height="22" viewBox="0 0 86 22" fill="none" xmlns="http://www.w3.org/2000/svg">
<path d="M14.1455 14.9848L18.722 17.3558C17.7651 18.6044 16.5655 19.6072 15.1232 20.3643C13.6809 21.1214 12.1069 21.5 10.4011 21.5C8.48731 21.5 6.73992 21.0285 5.15895 20.0854C3.59185 19.1423 2.33678 17.8805 1.39375 16.2998C0.464583 14.7059 0 12.9459 0 11.0199C0 9.55882 0.270429 8.19734 0.811287 6.93548C1.35215 5.66034 2.09409 4.54459 3.03713 3.58823C3.99403 2.6186 5.10348 1.86148 6.36548 1.31689C7.62749 0.772296 8.9727 0.5 10.4011 0.5C12.1069 0.5 13.6809 0.878557 15.1232 1.63567C16.5655 2.39279 17.7651 3.40892 18.722 4.68406L14.1455 7.0351C13.6601 6.50379 13.0846 6.09203 12.4189 5.79981C11.7671 5.50759 11.0945 5.36148 10.4011 5.36148C9.40261 5.36148 8.50118 5.62713 7.69683 6.15844C6.89247 6.67647 6.25454 7.36717 5.78302 8.23055C5.3115 9.08064 5.07575 10.0104 5.07575 11.0199C5.07575 12.0161 5.3115 12.9459 5.78302 13.8093C6.25454 14.6594 6.89247 15.3435 7.69683 15.8615C8.50118 16.3795 9.40261 16.6385 10.4011 16.6385C11.1223 16.6385 11.8087 16.4924 12.4605 16.2002C13.1123 15.8947 13.674 15.4896 14.1455 14.9848Z" fill="white"/>
<path d="M30.9596 21.5C29.0458 21.5 27.2984 21.0285 25.7174 20.0854C24.1503 19.1423 22.8952 17.8805 21.9522 16.2998C21.023 14.7059 20.5585 12.9459 20.5585 11.0199C20.5585 9.55882 20.8289 8.19734 21.3697 6.93548C21.9106 5.66034 22.6525 4.54459 23.5956 3.58823C24.5525 2.6186 25.6619 1.86148 26.9239 1.31689C28.1859 0.772296 29.5312 0.5 30.9596 0.5C32.8734 0.5 34.6138 0.971537 36.1809 1.91461C37.7619 2.85768 39.017 4.12619 39.9461 5.72011C40.8892 7.31404 41.3607 9.08064 41.3607 11.0199C41.3607 12.4677 41.0903 13.8226 40.5494 15.0844C40.0085 16.3463 39.2597 17.462 38.3028 18.4317C37.3597 19.388 36.2572 20.1385 34.9952 20.6831C33.7471 21.2277 32.4019 21.5 30.9596 21.5ZM30.9596 16.6385C31.9719 16.6385 32.8803 16.3795 33.6847 15.8615C34.489 15.3435 35.12 14.6594 35.5777 13.8093C36.0492 12.9592 36.2849 12.0294 36.2849 11.0199C36.2849 9.98387 36.0423 9.0408 35.5569 8.1907C35.0853 7.32732 34.4405 6.64326 33.6223 6.13852C32.8179 5.62049 31.9303 5.36148 30.9596 5.36148C29.9611 5.36148 29.0596 5.62049 28.2553 6.13852C27.4509 6.65655 26.813 7.34725 26.3415 8.21063C25.87 9.074 25.6342 10.0104 25.6342 11.0199C25.6342 12.0693 25.8769 13.019 26.3623 13.8691C26.8477 14.7192 27.4925 15.3966 28.2969 15.9013C29.1151 16.3928 30.0027 16.6385 30.9596 16.6385Z" fill="white"/>
<path d="M57.5783 14.9848L62.1548 17.3558C61.1979 18.6044 59.9983 19.6072 58.556 20.3643C57.1137 21.1214 55.5397 21.5 53.8339 21.5C51.9201 21.5 50.1727 21.0285 48.5917 20.0854C47.0246 19.1423 45.7696 17.8805 44.8265 16.2998C43.8974 14.7059 43.4328 12.9459 43.4328 11.0199C43.4328 9.55882 43.7032 8.19734 44.2441 6.93548C44.7849 5.66034 45.5269 4.54459 46.4699 3.58823C47.4268 2.6186 48.5363 1.86148 49.7983 1.31689C51.0603 0.772296 52.4055 0.5 53.8339 0.5C55.5397 0.5 57.1137 0.878557 58.556 1.63567C59.9983 2.39279 61.1979 3.40892 62.1548 4.68406L57.5783 7.0351C57.0929 6.50379 56.5174 6.09203 55.8517 5.79981C55.1999 5.50759 54.5273 5.36148 53.8339 5.36148C52.8354 5.36148 51.934 5.62713 51.1296 6.15844C50.3253 6.67647 49.6873 7.36717 49.2158 8.23055C48.7443 9.08064 48.5085 10.0104 48.5085 11.0199C48.5085 12.0161 48.7443 12.9459 49.2158 13.8093C49.6873 14.6594 50.3253 15.3435 51.1296 15.8615C51.934 16.3795 52.8354 16.6385 53.8339 16.6385C54.555 16.6385 55.2415 16.4924 55.8933 16.2002C56.5451 15.8947 57.1068 15.4896 57.5783 14.9848Z" fill="white"/>
<path d="M80.9243 1.05787H86V20.982H80.9243L80.6954 18.5114C80.1268 19.4013 79.371 20.1252 78.428 20.6831C77.4988 21.2277 76.3963 21.5 75.1204 21.5C73.5811 21.5 72.1388 21.2211 70.7936 20.6632C69.4484 20.1053 68.2626 19.3349 67.2364 18.352C66.224 17.3691 65.4266 16.2334 64.8441 14.945C64.2755 13.6565 63.9912 12.2751 63.9912 10.8008C63.9912 9.37951 64.2617 8.04459 64.8025 6.79601C65.3573 5.54744 66.1269 4.45161 67.1116 3.50854C68.0962 2.56546 69.2334 1.82827 70.5231 1.29696C71.8129 0.765654 73.1997 0.5 74.6836 0.5C76.0565 0.5 77.2839 0.79222 78.3656 1.37666C79.4612 1.9611 80.3903 2.70493 81.1531 3.60816L80.9243 1.05787ZM74.9956 16.8178C76.0773 16.8178 77.0342 16.5588 77.8663 16.0408C78.6984 15.5228 79.3502 14.8254 79.8217 13.9488C80.2933 13.0588 80.529 12.0825 80.529 11.0199C80.529 9.94402 80.2933 8.96774 79.8217 8.09108C79.3502 7.20114 78.6915 6.49715 77.8455 5.97913C77.0134 5.4611 76.0635 5.20209 74.9956 5.20209C73.9278 5.20209 72.9501 5.46774 72.0625 5.99905C71.1888 6.51708 70.4885 7.21442 69.9615 8.09108C69.4484 8.96774 69.1918 9.94402 69.1918 11.0199C69.1918 12.0958 69.4553 13.0721 69.9823 13.9488C70.5093 14.8254 71.2096 15.5228 72.0833 16.0408C72.9709 16.5588 73.9416 16.8178 74.9956 16.8178Z" fill="white"/>
</svg>
