<svg width="74" height="19" viewBox="0 0 74 19" fill="none" xmlns="http://www.w3.org/2000/svg">
<path d="M12.4104 12.5326L16.3331 14.5443C15.5129 15.6037 14.4847 16.4546 13.2484 17.097C12.0122 17.7394 10.663 18.0606 9.20089 18.0606C7.56048 18.0606 6.06272 17.6605 4.7076 16.8603C3.36437 16.0601 2.2886 14.9895 1.48029 13.6483C0.683859 12.2959 0.285645 10.8026 0.285645 9.16842C0.285645 7.9287 0.517441 6.7735 0.981033 5.70283C1.44463 4.62089 2.08058 3.6742 2.8889 2.86274C3.7091 2.04002 4.66006 1.39762 5.74177 0.93554C6.82349 0.473463 7.97653 0.242424 9.20089 0.242424C10.663 0.242424 12.0122 0.563624 13.2484 1.20602C14.4847 1.84843 15.5129 2.7106 16.3331 3.79254L12.4104 5.78736C11.9943 5.33655 11.501 4.98718 10.9304 4.73923C10.3718 4.49129 9.79524 4.36732 9.20089 4.36732C8.34502 4.36732 7.57237 4.59272 6.88292 5.04353C6.19348 5.48307 5.64668 6.06912 5.24252 6.80168C4.83836 7.52297 4.63628 8.31189 4.63628 9.16842C4.63628 10.0137 4.83836 10.8026 5.24252 11.5352C5.64668 12.2565 6.19348 12.8369 6.88292 13.2764C7.57237 13.7159 8.34502 13.9357 9.20089 13.9357C9.81901 13.9357 10.4074 13.8117 10.9661 13.5638C11.5248 13.3046 12.0062 12.9608 12.4104 12.5326Z" fill="#0258F8"/>
<path d="M26.8224 18.0606C25.182 18.0606 23.6843 17.6605 22.3291 16.8603C20.9859 16.0601 19.9101 14.9895 19.1018 13.6483C18.3054 12.2959 17.9072 10.8026 17.9072 9.16842C17.9072 7.9287 18.139 6.7735 18.6026 5.70283C19.0662 4.62089 19.7021 3.6742 20.5104 2.86274C21.3306 2.04002 22.2816 1.39762 23.3633 0.93554C24.445 0.473463 25.5981 0.242424 26.8224 0.242424C28.4628 0.242424 29.9546 0.642516 31.2979 1.4427C32.653 2.24288 33.7288 3.31919 34.5252 4.67161C35.3335 6.02403 35.7377 7.52297 35.7377 9.16842C35.7377 10.3969 35.5059 11.5464 35.0423 12.6171C34.5787 13.6878 33.9368 14.6345 33.1166 15.4572C32.3083 16.2686 31.3633 16.9054 30.2815 17.3675C29.2117 17.8296 28.0587 18.0606 26.8224 18.0606ZM26.8224 13.9357C27.6902 13.9357 29.1582 13.2764 29.1582 13.2764C29.1582 13.2764 30.3885 12.2565 30.7808 11.5352C31.1849 10.8139 31.387 10.025 31.387 9.16842C31.387 8.28934 31.179 7.48916 30.763 6.76787C30.3588 6.03531 29.8061 5.45489 29.1047 5.02662C28.4153 4.58708 27.6545 4.36732 26.8224 4.36732C25.9666 4.36732 25.1939 4.58708 24.5045 5.02662C23.815 5.46616 23.2682 6.05221 22.8641 6.78477C22.4599 7.51734 22.2578 8.31189 22.2578 9.16842C22.2578 10.0588 22.4658 10.8646 22.8819 11.5859C23.2979 12.3072 23.8507 12.882 24.5401 13.3102C25.2414 13.7272 26.0022 13.9357 26.8224 13.9357Z" fill="#0258F8"/>
<path d="M49.6385 12.5326L53.5612 14.5443C52.741 15.6037 51.7128 16.4546 50.4765 17.097C49.2403 17.7394 47.8911 18.0606 46.429 18.0606C44.7886 18.0606 43.2908 17.6605 41.9357 16.8603C40.5925 16.0601 39.5167 14.9895 38.7084 13.6483C37.912 12.2959 37.5137 10.8026 37.5137 9.16842C37.5137 7.9287 37.7455 6.7735 38.2091 5.70283C38.6727 4.62089 39.3087 3.6742 40.117 2.86274C40.9372 2.04002 41.8882 1.39762 42.9699 0.93554C44.0516 0.473463 45.2046 0.242424 46.429 0.242424C47.8911 0.242424 49.2403 0.563624 50.4765 1.20602C51.7128 1.84843 52.741 2.7106 53.5612 3.79254L49.6385 5.78736C49.2224 5.33655 48.7291 4.98718 48.1585 4.73923C47.5999 4.49129 47.0233 4.36732 46.429 4.36732C45.5731 4.36732 44.8005 4.59272 44.111 5.04353C43.4216 5.48307 42.8748 6.06912 42.4706 6.80168C42.0665 7.52297 41.8644 8.31189 41.8644 9.16842C41.8644 10.0137 42.0665 10.8026 42.4706 11.5352C42.8748 12.2565 43.4216 12.8369 44.111 13.2764C44.8005 13.7159 45.5731 13.9357 46.429 13.9357C47.0471 13.9357 47.6355 13.8117 48.1942 13.5638C48.7529 13.3046 49.2343 12.9608 49.6385 12.5326Z" fill="#0258F8"/>
<path d="M69.6493 0.715772H73.9999V17.6211H69.6493L69.4532 15.5248C68.9658 16.2799 68.3179 16.8941 67.5096 17.3675C66.7132 17.8296 65.7682 18.0606 64.6746 18.0606C63.3551 18.0606 62.1189 17.8239 60.9658 17.3506C59.8128 16.8772 58.7965 16.2236 57.9168 15.3896C57.0491 14.5556 56.3656 13.592 55.8663 12.4988C55.379 11.4056 55.1353 10.2335 55.1353 8.98246C55.1353 7.77655 55.3671 6.6439 55.8307 5.5845C56.3061 4.5251 56.9659 3.59531 57.8098 2.79512C58.6538 1.99494 59.6286 1.36944 60.734 0.918635C61.8395 0.467828 63.0282 0.242424 64.3001 0.242424C65.477 0.242424 66.529 0.490368 67.4561 0.986257C68.3952 1.48214 69.1916 2.11328 69.8454 2.87965L69.6493 0.715772ZM64.5676 14.0879C65.4948 14.0879 66.315 13.8681 67.0282 13.4286C67.7414 12.989 68.3001 12.3973 68.7043 11.6535C69.1084 10.8984 69.3105 10.07 69.3105 9.16842C69.3105 8.25553 69.1084 7.42717 68.7043 6.68334C68.3001 5.92824 67.7355 5.33092 67.0104 4.89138C66.2972 4.45184 65.4829 4.23207 64.5676 4.23207C63.6523 4.23207 62.8143 4.45748 62.0535 4.90829C61.3046 5.34782 60.7043 5.93951 60.2526 6.68334C59.8128 7.42717 59.5929 8.25553 59.5929 9.16842C59.5929 10.0813 59.8188 10.9097 60.2705 11.6535C60.7222 12.3973 61.3225 12.989 62.0713 13.4286C62.8321 13.8681 63.6642 14.0879 64.5676 14.0879Z" fill="#0258F8"/>
</svg>
