<svg width="36" height="36" viewBox="0 0 36 36" fill="none" xmlns="http://www.w3.org/2000/svg">
<ellipse cx="18" cy="17.8788" rx="18" ry="17.8182" fill="#0258F8"/>
<path d="M23.5272 22.0713L27.4287 24.0227C26.4778 25.2463 25.2682 26.2252 23.7999 26.9593C22.3456 27.6935 20.7654 28.0606 19.0594 28.0606C17.1296 28.0606 15.3677 27.6034 13.7735 26.6889C12.1933 25.7744 10.9278 24.5507 9.9769 23.018C9.03999 21.4724 8.57153 19.7657 8.57153 17.8981C8.57153 16.4813 8.84422 15.1611 9.38959 13.9374C9.93495 12.7009 10.6831 11.619 11.634 10.6916C12.5989 9.75137 13.7176 9.01719 14.9901 8.4891C16.2626 7.96101 17.619 7.69697 19.0594 7.69697C20.7654 7.69697 22.3456 8.06406 23.7999 8.79823C25.2682 9.5324 26.4778 10.5177 27.4287 11.7542L23.5272 13.7056C22.9399 13.0616 22.2547 12.5721 21.4716 12.2372C20.6885 11.8895 19.8844 11.7156 19.0594 11.7156C17.9127 11.7156 16.8709 12.0054 15.934 12.585C15.0111 13.1517 14.2769 13.9052 13.7316 14.8455C13.2002 15.7729 12.9345 16.7904 12.9345 17.8981C12.9345 18.9929 13.2072 20.0105 13.7525 20.9507C14.2979 21.8781 15.032 22.6252 15.955 23.1919C16.8919 23.7586 17.9267 24.042 19.0594 24.042C19.9264 24.042 20.7514 23.8617 21.5345 23.501C22.3176 23.1404 22.9818 22.6638 23.5272 22.0713Z" fill="white"/>
</svg>
