<svg width="120" height="56" viewBox="0 0 120 56" fill="none" xmlns="http://www.w3.org/2000/svg">
<path d="M58.4104 30.5326L62.3331 32.5443C61.5129 33.6037 60.4847 34.4546 59.2484 35.097C58.0122 35.7394 56.663 36.0606 55.2009 36.0606C53.5605 36.0606 52.0627 35.6605 50.7076 34.8603C49.3644 34.0601 48.2886 32.9895 47.4803 31.6483C46.6839 30.2959 46.2856 28.8026 46.2856 27.1684C46.2856 25.9287 46.5174 24.7735 46.981 23.7028C47.4446 22.6209 48.0806 21.6742 48.8889 20.8627C49.7091 20.04 50.6601 19.3976 51.7418 18.9355C52.8235 18.4735 53.9765 18.2424 55.2009 18.2424C56.663 18.2424 58.0122 18.5636 59.2484 19.206C60.4847 19.8484 61.5129 20.7106 62.3331 21.7925L58.4104 23.7874C57.9943 23.3366 57.501 22.9872 56.9304 22.7392C56.3718 22.4913 55.7952 22.3673 55.2009 22.3673C54.345 22.3673 53.5724 22.5927 52.8829 23.0435C52.1935 23.4831 51.6467 24.0691 51.2425 24.8017C50.8384 25.523 50.6363 26.3119 50.6363 27.1684C50.6363 28.0137 50.8384 28.8026 51.2425 29.5352C51.6467 30.2565 52.1935 30.8369 52.8829 31.2764C53.5724 31.7159 54.345 31.9357 55.2009 31.9357C55.819 31.9357 56.4074 31.8117 56.9661 31.5638C57.5248 31.3046 58.0062 30.9608 58.4104 30.5326Z" fill="#0258F8"/>
<path d="M72.8224 36.0606C71.182 36.0606 69.6843 35.6605 68.3291 34.8603C66.9859 34.0601 65.9101 32.9895 65.1018 31.6483C64.3054 30.2959 63.9072 28.8026 63.9072 27.1684C63.9072 25.9287 64.139 24.7735 64.6026 23.7028C65.0662 22.6209 65.7021 21.6742 66.5104 20.8627C67.3306 20.04 68.2816 19.3976 69.3633 18.9355C70.445 18.4735 71.5981 18.2424 72.8224 18.2424C74.4628 18.2424 75.9546 18.6425 77.2979 19.4427C78.653 20.2429 79.7288 21.3192 80.5252 22.6716C81.3335 24.024 81.7377 25.523 81.7377 27.1684C81.7377 28.3969 81.5059 29.5464 81.0423 30.6171C80.5787 31.6878 79.9368 32.6345 79.1166 33.4572C78.3083 34.2686 77.3633 34.9054 76.2815 35.3675C75.2117 35.8296 74.0587 36.0606 72.8224 36.0606ZM72.8224 31.9357C73.6902 31.9357 75.1582 31.2764 75.1582 31.2764C75.1582 31.2764 76.3885 30.2565 76.7808 29.5352C77.1849 28.8139 77.387 28.025 77.387 27.1684C77.387 26.2893 77.179 25.4892 76.763 24.7679C76.3588 24.0353 75.8061 23.4549 75.1047 23.0266C74.4153 22.5871 73.6545 22.3673 72.8224 22.3673C71.9666 22.3673 71.1939 22.5871 70.5045 23.0266C69.815 23.4662 69.2682 24.0522 68.8641 24.7848C68.4599 25.5173 68.2578 26.3119 68.2578 27.1684C68.2578 28.0588 68.4658 28.8646 68.8819 29.5859C69.2979 30.3072 69.8507 30.882 70.5401 31.3102C71.2414 31.7272 72.0022 31.9357 72.8224 31.9357Z" fill="#0258F8"/>
<path d="M95.6385 30.5326L99.5612 32.5443C98.741 33.6037 97.7128 34.4546 96.4765 35.097C95.2403 35.7394 93.8911 36.0606 92.429 36.0606C90.7886 36.0606 89.2908 35.6605 87.9357 34.8603C86.5925 34.0601 85.5167 32.9895 84.7084 31.6483C83.912 30.2959 83.5137 28.8026 83.5137 27.1684C83.5137 25.9287 83.7455 24.7735 84.2091 23.7028C84.6727 22.6209 85.3087 21.6742 86.117 20.8627C86.9372 20.04 87.8882 19.3976 88.9699 18.9355C90.0516 18.4735 91.2046 18.2424 92.429 18.2424C93.8911 18.2424 95.2403 18.5636 96.4765 19.206C97.7128 19.8484 98.741 20.7106 99.5612 21.7925L95.6385 23.7874C95.2224 23.3366 94.7291 22.9872 94.1585 22.7392C93.5999 22.4913 93.0233 22.3673 92.429 22.3673C91.5731 22.3673 90.8005 22.5927 90.111 23.0435C89.4216 23.4831 88.8748 24.0691 88.4706 24.8017C88.0665 25.523 87.8644 26.3119 87.8644 27.1684C87.8644 28.0137 88.0665 28.8026 88.4706 29.5352C88.8748 30.2565 89.4216 30.8369 90.111 31.2764C90.8005 31.7159 91.5731 31.9357 92.429 31.9357C93.0471 31.9357 93.6355 31.8117 94.1942 31.5638C94.7529 31.3046 95.2343 30.9608 95.6385 30.5326Z" fill="#0258F8"/>
<path d="M115.649 18.7158H120V35.6211H115.649L115.453 33.5248C114.966 34.2799 114.318 34.8941 113.51 35.3675C112.713 35.8296 111.768 36.0606 110.675 36.0606C109.355 36.0606 108.119 35.8239 106.966 35.3506C105.813 34.8772 104.796 34.2236 103.917 33.3896C103.049 32.5556 102.366 31.592 101.866 30.4988C101.379 29.4056 101.135 28.2335 101.135 26.9825C101.135 25.7766 101.367 24.6439 101.831 23.5845C102.306 22.5251 102.966 21.5953 103.81 20.7951C104.654 19.9949 105.629 19.3694 106.734 18.9186C107.84 18.4678 109.028 18.2424 110.3 18.2424C111.477 18.2424 112.529 18.4904 113.456 18.9863C114.395 19.4821 115.192 20.1133 115.845 20.8796L115.649 18.7158ZM110.568 32.0879C111.495 32.0879 112.315 31.8681 113.028 31.4286C113.741 30.989 114.3 30.3973 114.704 29.6535C115.108 28.8984 115.311 28.07 115.311 27.1684C115.311 26.2555 115.108 25.4272 114.704 24.6833C114.3 23.9282 113.735 23.3309 113.01 22.8914C112.297 22.4518 111.483 22.2321 110.568 22.2321C109.652 22.2321 108.814 22.4575 108.054 22.9083C107.305 23.3478 106.704 23.9395 106.253 24.6833C105.813 25.4272 105.593 26.2555 105.593 27.1684C105.593 28.0813 105.819 28.9097 106.27 29.6535C106.722 30.3973 107.322 30.989 108.071 31.4286C108.832 31.8681 109.664 32.0879 110.568 32.0879Z" fill="#0258F8"/>
<ellipse cx="18" cy="25.8788" rx="18" ry="17.8182" fill="#0258F8"/>
<path d="M23.5272 30.0713L27.4287 32.0227C26.4778 33.2463 25.2682 34.2252 23.7999 34.9593C22.3456 35.6935 20.7654 36.0606 19.0594 36.0606C17.1296 36.0606 15.3677 35.6034 13.7735 34.6889C12.1933 33.7744 10.9278 32.5507 9.9769 31.018C9.03999 29.4724 8.57153 27.7657 8.57153 25.8981C8.57153 24.4813 8.84422 23.1611 9.38959 21.9374C9.93495 20.7009 10.6831 19.619 11.634 18.6916C12.5989 17.7514 13.7176 17.0172 14.9901 16.4891C16.2626 15.961 17.619 15.697 19.0594 15.697C20.7654 15.697 22.3456 16.0641 23.7999 16.7982C25.2682 17.5324 26.4778 18.5177 27.4287 19.7542L23.5272 21.7056C22.9399 21.0616 22.2547 20.5721 21.4716 20.2372C20.6885 19.8895 19.8844 19.7156 19.0594 19.7156C17.9127 19.7156 16.8709 20.0054 15.934 20.585C15.0111 21.1517 14.2769 21.9052 13.7316 22.8455C13.2002 23.7729 12.9345 24.7904 12.9345 25.8981C12.9345 26.9929 13.2072 28.0105 13.7525 28.9507C14.2979 29.8781 15.032 30.6252 15.955 31.1919C16.8919 31.7586 17.9267 32.042 19.0594 32.042C19.9264 32.042 20.7514 31.8617 21.5345 31.501C22.3176 31.1404 22.9818 30.6638 23.5272 30.0713Z" fill="white"/>
</svg>
